<?xml version="1.0" encoding="utf-8"?>
<svg xmlns="http://www.w3.org/2000/svg" width="128px" height="128px" viewBox="0 0 500 500" preserveAspectRatio="xMidYMid meet" xmlns:bx="https://boxy-svg.com">
  <defs>
    <bx:export>
      <bx:file format="svg"/>
      <bx:file format="svg" path="Untitled 2.svg"/>
    </bx:export>
  </defs>
  <path d="M 64.531 2.696 C 61.963 2.903 58.722 3.395 54.416 4.249 C 48.814 5.336 41.526 8.286 36.054 11.65 C 34.187 12.815 33.823 13.151 34.109 13.384 C 36.339 15.403 38.181 16.904 38.388 16.904 C 38.518 16.904 39.607 16.361 40.826 15.714 C 58.877 5.957 77.421 5.62 95.654 14.756 C 97.521 15.662 99.207 16.568 99.414 16.749 C 99.622 16.93 100.452 17.473 101.23 17.939 C 105.691 20.605 111.734 26.04 115.028 30.362 C 120.059 36.961 124.105 45.243 126.102 53.033 C 127.01 56.578 127.71 61.185 127.866 64.653 C 128.384 75.833 124.364 89.342 117.492 99.461 C 115.65 102.205 112.875 105.673 112.538 105.673 C 112.382 105.673 110.385 104.016 108.103 101.998 L 98.377 93.431 L 91.893 87.712 L 87.484 83.804 L 83.853 80.595 C 83.775 80.517 82.842 79.689 81.778 78.757 L 79.548 76.816 C 79.392 76.661 78.407 75.807 77.369 74.875 L 72.856 70.89 L 68.421 66.982 L 63.986 63.074 L 59.603 59.218 L 56.361 56.345 C 55.583 55.621 51.952 52.437 48.321 49.228 L 34.135 36.702 L 32.76 35.486 L 32.76 68.25 L 32.76 101.014 L 37.428 101.014 L 42.097 101.014 L 42.149 79.223 L 42.227 57.458 L 46.895 61.469 L 62.716 75.108 C 64.298 76.454 65.62 77.645 65.698 77.722 C 65.776 77.8 67.41 79.223 69.329 80.854 L 84.761 94.156 L 93.449 101.661 L 107.818 114.084 C 107.973 114.239 108.544 114.679 109.062 115.093 L 110.022 115.818 L 111.137 115.041 C 112.564 114.032 115.443 111.237 117.466 108.908 C 122.393 103.24 126.647 96.071 129.188 89.239 C 134.012 76.325 134.635 63.954 131.16 50.238 C 129.292 42.81 125.091 34.192 120.085 27.541 C 117.803 24.513 111.993 18.638 109.011 16.335 C 99.311 8.881 88.003 4.275 76.202 2.955 C 72.519 2.541 67.643 2.437 64.531 2.696 Z M 27.962 17.473 C 26.043 18.974 21.556 23.452 19.429 25.962 C 16.421 29.559 14.579 32.51 11.649 38.514 C 8.77 44.415 6.902 50.315 5.865 56.759 C 5.191 61.055 5.191 73.348 5.891 77.075 C 7.058 83.39 8.796 88.851 11.493 94.441 C 14.89 101.506 18.262 106.268 23.916 111.884 C 34.42 122.313 46.376 128.059 62.067 130.155 C 69.978 131.19 80.378 130.181 88.833 127.515 C 93.916 125.911 102.397 121.848 105.042 119.751 L 105.717 119.234 L 103.46 117.319 L 101.23 115.429 L 99.726 116.361 C 97.884 117.474 93.008 119.933 91.115 120.683 C 77.992 125.937 65.776 126.558 52.86 122.676 C 42.304 119.493 31.826 112.867 25.317 105.284 C 18.47 97.313 13.723 87.557 11.649 77.205 C 10.092 69.363 10.092 64.032 11.649 56.138 C 13.749 45.502 18.366 36.185 25.991 27.256 L 26.769 26.35 L 27.625 27.153 C 28.714 28.162 29.933 29.249 34.446 33.234 L 49.229 46.278 L 54.676 51.066 L 58.177 54.171 C 58.255 54.249 59.292 55.181 60.511 56.242 L 64.661 59.865 L 87.354 79.896 L 90.467 82.665 C 91.167 83.312 94.746 86.444 98.377 89.627 L 105.12 95.579 C 105.535 96.045 107.818 97.909 107.947 97.909 C 108.025 97.909 108.103 83.235 108.103 65.3 L 108.103 32.691 L 103.383 32.691 L 98.636 32.691 L 98.585 54.456 L 98.507 76.221 L 95.135 73.297 L 80.092 60.253 L 53.249 37.116 L 47.543 32.199 L 43.757 28.938 C 43.056 28.291 32.267 18.974 30.841 17.784 L 29.259 16.464 L 27.962 17.473 Z"/>
</svg>
