<?xml version="1.0" standalone="no"?>
<!DOCTYPE svg PUBLIC "-//W3C//DTD SVG 20010904//EN"
 "http://www.w3.org/TR/2001/REC-SVG-20010904/DTD/svg10.dtd">
<svg version="1.0" xmlns="http://www.w3.org/2000/svg"
 width="500.000000pt" height="500.000000pt" viewBox="0 0 500.000000 500.000000"
 preserveAspectRatio="xMidYMid meet">

<g transform="translate(0.000000,500.000000) scale(0.100000,-0.100000)"
fill="#000000" stroke="none">
<path d="M2335 4969 c-99 -8 -224 -27 -390 -60 -216 -42 -497 -156 -708 -286
-72 -45 -86 -58 -75 -67 86 -78 157 -136 165 -136 5 0 47 21 94 46 696 377
1411 390 2114 37 72 -35 137 -70 145 -77 8 -7 40 -28 70 -46 172 -103 405
-313 532 -480 194 -255 350 -575 427 -876 35 -137 62 -315 68 -449 20 -432
-135 -954 -400 -1345 -71 -106 -178 -240 -191 -240 -6 0 -83 64 -171 142 -88
77 -257 226 -375 331 -118 104 -231 204 -250 221 -19 17 -96 85 -170 151 -74
65 -137 121 -140 124 -3 3 -39 35 -80 71 -41 36 -80 70 -86 75 -6 6 -44 39
-84 75 -41 36 -119 105 -174 154 -56 49 -132 117 -171 151 -38 34 -115 102
-171 151 -55 49 -131 116 -169 149 -38 33 -95 83 -125 111 -30 28 -170 151
-310 275 -292 258 -472 417 -547 484 l-53 47 0 -1266 0 -1266 180 0 180 0 2
842 3 841 180 -155 c186 -161 420 -363 610 -527 61 -52 112 -98 115 -101 3 -3
66 -58 140 -121 213 -184 529 -457 595 -514 33 -29 184 -159 335 -290 346
-299 540 -467 554 -480 6 -6 28 -23 48 -39 l37 -28 43 30 c55 39 166 147 244
237 190 219 354 496 452 760 186 499 210 977 76 1507 -72 287 -234 620 -427
877 -88 117 -312 344 -427 433 -374 288 -810 466 -1265 517 -142 16 -330 20
-450 10z"/>
<path d="M925 4398 c-74 -58 -247 -231 -329 -328 -116 -139 -187 -253 -300
-485 -111 -228 -183 -456 -223 -705 -26 -166 -26 -641 1 -785 45 -244 112
-455 216 -671 131 -273 261 -457 479 -674 405 -403 866 -625 1471 -706 305
-40 706 -1 1032 102 196 62 523 219 625 300 l26 20 -87 74 -86 73 -58 -36
c-71 -43 -259 -138 -332 -167 -506 -203 -977 -227 -1475 -77 -407 123 -811
379 -1062 672 -264 308 -447 685 -527 1085 -60 303 -60 509 0 814 81 411 259
771 553 1116 l30 35 33 -31 c42 -39 89 -81 263 -235 147 -129 434 -383 570
-504 44 -39 139 -122 210 -185 72 -63 132 -117 135 -120 3 -3 43 -39 90 -80
47 -40 119 -104 160 -140 117 -105 797 -706 875 -774 38 -33 92 -82 120 -107
27 -25 165 -146 305 -269 140 -124 257 -227 260 -230 16 -18 104 -90 109 -90
3 0 6 567 6 1260 l0 1260 -182 0 -183 0 -2 -841 -3 -841 -130 113 c-171 150
-383 333 -580 504 -395 340 -584 503 -1035 894 -47 41 -146 126 -220 190 -74
64 -140 120 -146 126 -27 25 -443 385 -498 431 l-61 51 -50 -39z"/>
</g>
</svg>
